<svg id="Capa_1" data-name="Capa 1" xmlns="http://www.w3.org/2000/svg" viewBox="0 0 40 29.05" width="40" height="29.05">
  <defs>
    <style>.cls-1{fill:#e30f2c;}.cls-2{fill:#1c2d4f;}</style>
  </defs>
  <rect class="cls-1" x="20.91" y="8.16" width="4.14" height="4.08"/>
  <path class="cls-2" d="M25,.48a6,6,0,0,0-6,6V8.64H16.56v4.08H19v16.8H23v-23A1.94,1.94,0,0,1,25,4.55h2.51V.48Z" transform="translate(-2.04 -0.48)"/>
  <path class="cls-2" d="M36.09,24.63H36a6,6,0,0,1-5.9-6V8.79A5.93,5.93,0,0,1,42,8.63v.16h0v2a2.86,2.86,0,0,1-1.23,2.33l-6.53,4.57v1A1.87,1.87,0,0,0,36,20.55h0a1.88,1.88,0,0,0,1.86-1.87v-.94H42v.94a6,6,0,0,1-5.91,5.95ZM36,6.94a1.85,1.85,0,0,0-1.85,1.85v3.9l3.69-2.57V8.78A1.85,1.85,0,0,0,36,6.94Z" transform="translate(-2.04 -0.48)"/>
  <path class="cls-2" d="M8.05,24.63H8a6,6,0,0,1-5.91-6V8.79a5.93,5.93,0,0,1,11.86,0h0v2a2.85,2.85,0,0,1-1.22,2.33L6.13,17.67v1A1.87,1.87,0,0,0,8,20.55H8a1.89,1.89,0,0,0,1.86-1.87v-.94H14v.94a6,6,0,0,1-5.91,5.95ZM8,6.94A1.85,1.85,0,0,0,6.12,8.79v3.9l3.69-2.57V8.78A1.84,1.84,0,0,0,8,6.94Z" transform="translate(-2.04 -0.48)"/>
</svg>
