<?xml version="1.0" encoding="utf-8"?>
<!-- Generator: Adobe Illustrator 21.1.0, SVG Export Plug-In . SVG Version: 6.00 Build 0)  -->
<svg version="1.1" id="Capa_1" xmlns="http://www.w3.org/2000/svg" xmlns:xlink="http://www.w3.org/1999/xlink" x="0px" y="0px"
	 width="1041px" height="850px" viewBox="0 0 1041 850" style="enable-background:new 0 0 1041 850;" xml:space="preserve">
<style type="text/css">
	.st0{fill:#ED081B;}
</style>
<path class="st0" d="M51.747,440.568c9.454,184.445,192.563,333.925,424.655,350.817c19.564,1.403,39.18,1.844,58.932,1.283
	c230.401-6.327,418.294-147.85,444.82-324.164c3.007-19.864,4.464-40.276,3.983-60.863c-0.816-38.653-8.379-75.896-24.482-109.772
	C900.161,170.311,752.605,75.793,574.627,59.577c-23.258-2.245-46.758-3.02-70.43-2.412c-31.938,0.788-63.021,4.035-93.028,9.541
	C266.867,90.82,79.489,201.166,54.205,385.091C51.433,404.34,51.686,426.657,51.747,440.568z M520.534,17.283
	c279.925,0,506.778,182.527,506.778,407.744c0,225.163-226.853,407.69-506.778,407.69c-252.611,0-462.145-148.752-500.457-343.347
	c-3.896-19.744-6.388-42.181-6.388-64.344c0-189.43,157.952-337.233,349.58-387.659C413.394,24.071,465.631,17.283,520.534,17.283z
	 M391.091,423.69L265.35,651.258L139.409,423.69L265.35,195.995L391.091,423.69z M898.01,423.69L772.188,651.258L646.288,423.69
	l125.901-227.695L898.01,423.69z M644.523,423.69L518.722,651.258L392.855,423.69l125.868-227.695L644.523,423.69z"/>
</svg>
